<svg width="300" height="300" viewBox="0 0 300 300" fill="none" xmlns="http://www.w3.org/2000/svg">
<g clip-path="url(#clip0_32_3)">
<path d="M300 56.9625C288.962 61.8625 277.1 65.1625 264.65 66.65C277.363 59.0375 287.125 46.975 291.712 32.6C279.825 39.65 266.65 44.775 252.625 47.5375C241.412 35.575 225.4 28.1 207.7 28.1C167.962 28.1 138.763 65.175 147.738 103.662C96.6 101.1 51.25 76.6 20.8875 39.3625C4.7625 67.025 12.525 103.212 39.925 121.537C29.85 121.212 20.35 118.45 12.0625 113.837C11.3875 142.35 31.825 169.025 61.425 174.962C52.7625 177.312 43.275 177.862 33.625 176.012C41.45 200.462 64.175 218.25 91.125 218.75C65.25 239.037 32.65 248.1 0 244.25C27.2375 261.712 59.6 271.9 94.35 271.9C208.625 271.9 273.187 175.387 269.287 88.825C281.312 80.1375 291.75 69.3 300 56.9625V56.9625Z" fill="#E5E5E5"/>
</g>
<defs>
<clipPath id="clip0_32_3">
<rect width="300" height="300" fill="white"/>
</clipPath>
</defs>
</svg>
